<svg width="21" height="19" viewBox="0 0 21 19" fill="none" xmlns="http://www.w3.org/2000/svg">
<path d="M10.5 18L9.1225 16.7956C7.52333 15.3906 6.20125 14.1785 5.15625 13.1594C4.11125 12.1403 3.28 11.2293 2.6625 10.4264C2.045 9.60808 1.60958 8.85922 1.35625 8.17984C1.11875 7.50045 1 6.80563 1 6.09537C1 4.64396 1.49875 3.43188 2.49625 2.45913C3.49375 1.48638 4.73667 1 6.225 1C7.04833 1 7.83208 1.16985 8.57625 1.50954C9.32042 1.84923 9.96167 2.32788 10.5 2.9455C11.0383 2.32788 11.6796 1.84923 12.4237 1.50954C13.1679 1.16985 13.9517 1 14.775 1C16.2633 1 17.5063 1.48638 18.5038 2.45913C19.5012 3.43188 20 4.64396 20 6.09537C20 6.80563 19.8733 7.50045 19.62 8.17984C19.3825 8.85922 18.955 9.60808 18.3375 10.4264C17.72 11.2293 16.8888 12.1403 15.8438 13.1594C14.7988 14.1785 13.4767 15.3906 11.8775 16.7956L10.5 18ZM10.5 15.4986C12.02 14.1708 13.2708 13.0359 14.2525 12.094C15.2342 11.1367 16.01 10.3106 16.58 9.6158C17.15 8.90554 17.5458 8.2802 17.7675 7.73978C17.9892 7.18392 18.1 6.63579 18.1 6.09537C18.1 5.16894 17.7833 4.39691 17.15 3.77929C16.5167 3.16167 15.725 2.85286 14.775 2.85286C14.0308 2.85286 13.3421 3.06131 12.7088 3.4782C12.0754 3.87966 11.64 4.39691 11.4025 5.02997H9.5975C9.36 4.39691 8.92458 3.87966 8.29125 3.4782C7.65792 3.06131 6.96917 2.85286 6.225 2.85286C5.275 2.85286 4.48333 3.16167 3.85 3.77929C3.21667 4.39691 2.9 5.16894 2.9 6.09537C2.9 6.63579 3.01083 7.18392 3.2325 7.73978C3.45417 8.2802 3.85 8.90554 4.42 9.6158C4.99 10.3106 5.76583 11.1367 6.7475 12.094C7.72917 13.0359 8.98 14.1708 10.5 15.4986Z" fill="#0CB0ED" stroke="#0CB0ED"/>
<path d="M2 7.04L10.7833 16L12.2 14.6L15.0333 12.64L17.8667 9.28L19 5.64L18.15 3.12L15.8833 2.56H13.05L10.2167 3.96L7.66667 2L4.26667 3.12L2 7.04Z" fill="#0CB0ED" stroke="#0CB0ED"/>
</svg>
